<?xml version="1.0" encoding="UTF-8"?>
<svg xmlns="http://www.w3.org/2000/svg" xmlns:xlink="http://www.w3.org/1999/xlink" width="100pt" height="100pt" viewBox="0 0 100 100" version="1.1">
<g id="surface1">
<path style=" stroke:none;fill-rule:nonzero;fill:rgb(64.705882%,16.470588%,16.470588%);fill-opacity:1;" d="M 42 41.9375 C 42 43.71875 40.210938 45.160156 38 45.160156 C 35.789062 45.160156 34 43.71875 34 41.9375 C 34 40.152344 35.789062 38.710938 38 38.710938 C 40.210938 38.710938 42 40.152344 42 41.9375 Z M 42 41.9375 "/>
<path style=" stroke:none;fill-rule:nonzero;fill:rgb(64.705882%,16.470588%,16.470588%);fill-opacity:1;" d="M 66 41.9375 C 66 43.71875 64.210938 45.160156 62 45.160156 C 59.789062 45.160156 58 43.71875 58 41.9375 C 58 40.152344 59.789062 38.710938 62 38.710938 C 64.210938 38.710938 66 40.152344 66 41.9375 Z M 66 41.9375 "/>
<path style=" stroke:none;fill-rule:nonzero;fill:rgb(64.705882%,16.470588%,16.470588%);fill-opacity:1;" d="M 88 72.4375 L 88 33.46875 C 88 32.855469 87.972656 32.25 87.917969 31.667969 C 87.464844 26.769531 85.128906 22.101562 81.238281 18.320312 L 90.574219 16.0625 C 91.390625 15.863281 91.960938 15.273438 91.996094 14.585938 C 92.035156 13.902344 91.53125 13.273438 90.742188 13.019531 L 50.742188 0.113281 C 50.285156 -0.03125 49.777344 -0.0390625 49.316406 0.0976562 L 5.316406 13 C 4.496094 13.238281 3.964844 13.878906 4 14.582031 C 4.039062 15.285156 4.632812 15.886719 5.476562 16.074219 L 18.203125 18.871094 C 14.171875 23.039062 11.984375 28.179688 12 33.46875 L 12 72.4375 C 4.640625 75.472656 0.00390625 81.574219 0 88.238281 L 0 98.386719 C 0 99.277344 0.894531 100 2 100 L 98 100 C 99.105469 100 100 99.277344 100 98.386719 L 100 88.238281 C 99.996094 81.574219 95.363281 75.46875 88 72.4375 Z M 82.917969 27.523438 C 83.449219 28.953125 83.789062 30.425781 83.925781 31.914062 C 83.976562 32.414062 84 32.9375 84 33.46875 L 84 71.175781 C 83.910156 71.15625 83.820312 71.132812 83.730469 71.109375 L 79.09375 69.582031 C 79.027344 69.558594 78.957031 69.539062 78.886719 69.523438 L 72.550781 68.050781 C 72.519531 68.042969 72.484375 68.035156 72.449219 68.027344 L 64 66.457031 L 64 63.730469 C 71.542969 59.652344 78 52.855469 78 45.160156 L 78 30.644531 C 78 30.597656 77.996094 30.546875 77.988281 30.5 C 77.996094 30.453125 78 30.402344 78 30.351562 L 78 24.195312 C 78 22.6875 77.8125 21.183594 77.441406 19.703125 C 79.960938 21.953125 81.828125 24.625 82.917969 27.523438 Z M 50 64.515625 C 45.453125 64.515625 39.398438 62.265625 34.585938 58.785156 C 27.113281 53.386719 26 47.933594 26 45.160156 L 26 38.4375 C 28.925781 37.976562 35.324219 36.914062 41.800781 35.421875 C 50.914062 33.320312 56.785156 31.21875 59.757812 28.953125 C 62.109375 32.246094 66.984375 37.683594 74 38.578125 L 74 45.160156 C 74 47.933594 72.886719 53.386719 65.414062 58.785156 C 60.601562 62.265625 54.546875 64.515625 50 64.515625 Z M 60 65.601562 L 60 66.984375 L 50 73.707031 L 40 66.984375 L 40 65.601562 C 43.460938 66.972656 46.953125 67.742188 50 67.742188 C 53.046875 67.742188 56.539062 66.972656 60 65.601562 Z M 74.011719 30.5 C 74.003906 30.546875 74 30.597656 74 30.644531 L 74 35.296875 C 66.59375 33.910156 61.886719 25.265625 61.835938 25.171875 C 61.5 24.535156 60.695312 24.144531 59.839844 24.199219 C 58.984375 24.253906 58.269531 24.746094 58.058594 25.414062 C 57.921875 25.863281 57.117188 27.089844 52.667969 28.839844 C 49.707031 30 45.691406 31.167969 40.726562 32.316406 C 34.890625 33.660156 29.113281 34.648438 26 35.148438 L 26 24.195312 C 26 23.015625 26.136719 21.835938 26.398438 20.675781 L 49.476562 25.75 C 49.835938 25.828125 50.21875 25.824219 50.574219 25.738281 L 73.484375 20.195312 C 73.828125 21.511719 74 22.851562 74 24.195312 L 74 30.351562 C 74 30.402344 74.003906 30.453125 74.011719 30.5 Z M 12.601562 14.296875 L 49.964844 3.339844 L 83.941406 14.296875 L 49.976562 22.515625 Z M 16 33.46875 C 15.984375 28.429688 18.28125 23.5625 22.445312 19.804688 L 22.527344 19.824219 C 22.175781 21.261719 22 22.726562 22 24.195312 L 22 45.160156 C 22 52.855469 28.457031 59.652344 36 63.730469 L 36 66.457031 L 27.550781 68.027344 C 27.484375 68.042969 27.421875 68.058594 27.355469 68.074219 L 16.332031 71.097656 C 16.21875 71.125 16.109375 71.152344 16 71.175781 Z M 48 96.773438 L 16 96.773438 L 16 90.324219 C 16 89.433594 15.105469 88.710938 14 88.710938 C 12.894531 88.710938 12 89.433594 12 90.324219 L 12 96.773438 L 4 96.773438 L 4 88.238281 C 4.003906 81.648438 9.511719 75.882812 17.417969 74.203125 C 17.464844 74.195312 17.511719 74.183594 17.554688 74.167969 L 23.523438 72.53125 L 48 89.453125 Z M 27.921875 71.324219 L 28.546875 71.152344 L 37.484375 69.496094 L 48.71875 77.046875 C 49.460938 77.542969 50.539062 77.542969 51.28125 77.046875 L 62.515625 69.496094 L 71.496094 71.164062 L 72.109375 71.304688 L 50 86.585938 Z M 96 96.773438 L 86 96.773438 L 86 90.324219 C 86 89.433594 85.105469 88.710938 84 88.710938 C 82.894531 88.710938 82 89.433594 82 90.324219 L 82 96.773438 L 52 96.773438 L 52 89.453125 L 76.707031 72.375 L 77.675781 72.597656 L 82.332031 74.136719 C 82.414062 74.164062 82.496094 74.1875 82.582031 74.203125 C 90.488281 75.882812 95.996094 81.648438 96 88.238281 Z M 96 96.773438 "/>
<path style=" stroke:none;fill-rule:nonzero;fill:rgb(64.705882%,16.470588%,16.470588%);fill-opacity:1;" d="M 40.542969 54.976562 C 42.828125 56.9375 46.273438 58.066406 50 58.066406 C 53.726562 58.066406 57.171875 56.9375 59.457031 54.976562 C 60.214844 54.328125 60.175781 53.304688 59.367188 52.695312 C 58.5625 52.085938 57.296875 52.117188 56.542969 52.765625 C 55.03125 54.066406 52.585938 54.839844 50 54.839844 C 47.414062 54.839844 44.96875 54.066406 43.457031 52.765625 C 42.703125 52.117188 41.4375 52.085938 40.632812 52.695312 C 39.824219 53.304688 39.785156 54.328125 40.542969 54.976562 Z M 40.542969 54.976562 "/>
</g>
</svg>
