<svg xmlns="http://www.w3.org/2000/svg" width="488" height="480" viewBox="0 0 488 480">
  <g id="service-9" transform="translate(0 -4)">
    <g id="Group_2" data-name="Group 2">
      <g id="Group_1" data-name="Group 1">
        <path id="Path_1" data-name="Path 1" d="M440.36,344.408A31.813,31.813,0,0,0,410.528,324H344V311.312L395.312,260h29.824a32,32,0,1,0,0-16H392a7.979,7.979,0,0,0-5.656,2.344L344,288.688V263.312l93.656-93.656A7.965,7.965,0,0,0,440,164V66.864a32,32,0,1,0-16,0v93.824l-8,8-24-24V108H376v40a7.965,7.965,0,0,0,2.344,5.656L404.688,180,360,224.688l-16-16V180H328v32a7.965,7.965,0,0,0,2.344,5.656L348.688,236l-18.344,18.344A7.965,7.965,0,0,0,328,260v64H296V191.312l45.656-45.656A7.965,7.965,0,0,0,344,140V90.864a32,32,0,1,0-16,0v45.824l-45.656,45.656A7.965,7.965,0,0,0,280,188V324H248V66.864a32,32,0,1,0-16,0V232.688l-24-24V148H192v64a7.965,7.965,0,0,0,2.344,5.656L232,255.312V324H200V284a7.965,7.965,0,0,0-2.344-5.656L123.312,204l42.344-42.344A7.965,7.965,0,0,0,168,156V98.864a32,32,0,1,0-16,0v53.824l-40,40-16-16V146.864a32,32,0,1,0-16,0V180a7.965,7.965,0,0,0,2.344,5.656L184,287.312V324H152V300a7.965,7.965,0,0,0-2.344-5.656L40,184.688V66.864a32,32,0,1,0-16,0V188a7.965,7.965,0,0,0,2.344,5.656L68.688,236H64a7.979,7.979,0,0,0-5.656,2.344L48.152,248.536A31.577,31.577,0,0,0,32,244a32,32,0,1,0,32,32,31.577,31.577,0,0,0-4.536-16.152L67.312,252H84.688L136,303.312V324H69.472a31.8,31.8,0,0,0-29.824,20.408l-37.336,96A32,32,0,0,0,32.144,484h415.72A32,32,0,0,0,477.7,440.408ZM456,236a16,16,0,1,1-16,16A16.016,16.016,0,0,1,456,236ZM416,36a16,16,0,1,1,16,16A16.016,16.016,0,0,1,416,36ZM320,60a16,16,0,1,1,16,16A16.016,16.016,0,0,1,320,60ZM144,68a16,16,0,1,1,16,16A16.016,16.016,0,0,1,144,68ZM72,116a16,16,0,1,1,16,16A16.016,16.016,0,0,1,72,116ZM16,36A16,16,0,1,1,32,52,16.016,16.016,0,0,1,16,36ZM32,292a16,16,0,1,1,16-16A16.016,16.016,0,0,1,32,292Zm264,48h32v16H296Zm-16,0v16H248V340ZM224,36a16,16,0,1,1,16,16A16.016,16.016,0,0,1,224,36ZM200,340h32v16H200Zm-48,0h32v16H152Zm0,64V372h32v32h16V372h32v32h16V372h32v32h16V372h32v32h16V372h34.232L396.9,428H83.1l18.664-56H136v32Zm309.072,57.032A15.791,15.791,0,0,1,447.856,468H32.144a16.008,16.008,0,0,1-14.92-21.8l37.336-96A15.913,15.913,0,0,1,69.472,340H136v16H96a8,8,0,0,0-7.592,5.472l-24,72A8,8,0,0,0,72,444H408a8,8,0,0,0,7.592-10.528l-24-72A8,8,0,0,0,384,356H344V340h66.528a15.913,15.913,0,0,1,14.912,10.2l37.336,96A15.774,15.774,0,0,1,461.072,461.032Z" fill="brown"/>
      </g>
    </g>
    <g id="Group_4" data-name="Group 4">
      <g id="Group_3" data-name="Group 3">
        <rect id="Rectangle_1" data-name="Rectangle 1" width="16" height="32" transform="translate(192 100)" fill="brown"/>
      </g>
    </g>
    <g id="Group_6" data-name="Group 6">
      <g id="Group_5" data-name="Group 5">
        <rect id="Rectangle_2" data-name="Rectangle 2" width="16" height="16" transform="translate(376 76)" fill="brown"/>
      </g>
    </g>
  </g>
</svg>
