<svg id="service-8" xmlns="http://www.w3.org/2000/svg" width="512" height="512" viewBox="0 0 512 512">
  <g id="Group_2" data-name="Group 2">
    <g id="Group_1" data-name="Group 1">
      <path id="Path_1" data-name="Path 1" d="M366.933,477.867H128a8.536,8.536,0,0,0-8.533,8.533v17.067a8.533,8.533,0,0,0,17.066,0v-8.533h230.4a8.533,8.533,0,0,0,0-17.067Z" fill="brown"/>
      <path id="Path_2" data-name="Path 2" d="M187.733,213.333a8.536,8.536,0,0,0,8.533,8.533H230.4a8.536,8.536,0,0,0,8.533-8.533v-51.2A8.536,8.536,0,0,0,230.4,153.6H196.267a8.536,8.536,0,0,0-8.533,8.533v51.2ZM204.8,170.667h17.067V204.8H204.8Z" fill="brown"/>
      <path id="Path_3" data-name="Path 3" d="M110.933,102.4H8.533A8.536,8.536,0,0,0,0,110.933V281.6a8.533,8.533,0,0,0,17.066,0V119.467h93.867a8.534,8.534,0,0,0,0-17.067Z" fill="brown"/>
      <path id="Path_4" data-name="Path 4" d="M409.6,418.133a8.536,8.536,0,0,0,8.533,8.533h34.133a8.536,8.536,0,0,0,8.533-8.533v-51.2a8.536,8.536,0,0,0-8.533-8.533H418.133a8.536,8.536,0,0,0-8.533,8.533Zm17.067-42.666h17.067V409.6H426.667Z" fill="brown"/>
      <path id="Path_5" data-name="Path 5" d="M42.667,307.2C.486,307.2,0,417.024,0,418.133a42.74,42.74,0,0,0,34.133,41.8v43.529a8.533,8.533,0,0,0,17.066,0V459.938a42.74,42.74,0,0,0,34.133-41.8C85.333,417.024,84.847,307.2,42.667,307.2Zm0,136.533a25.631,25.631,0,0,1-25.6-25.6c0-42.513,11.418-93.867,25.6-93.867s25.6,51.354,25.6,93.867A25.631,25.631,0,0,1,42.667,443.733Z" fill="brown"/>
      <path id="Path_6" data-name="Path 6" d="M93.867,256H59.733a8.536,8.536,0,0,0-8.533,8.533V281.6a8.533,8.533,0,0,0,17.066,0v-8.533H85.333v42.667a8.533,8.533,0,0,0,17.066,0v-51.2A8.535,8.535,0,0,0,93.867,256Z" fill="brown"/>
      <path id="Path_7" data-name="Path 7" d="M418.133,221.867h34.133a8.536,8.536,0,0,0,8.533-8.533v-51.2a8.536,8.536,0,0,0-8.533-8.533H418.133a8.536,8.536,0,0,0-8.533,8.533v51.2A8.536,8.536,0,0,0,418.133,221.867Zm8.534-51.2h17.067V204.8H426.667Z" fill="brown"/>
      <path id="Path_8" data-name="Path 8" d="M93.867,153.6H59.733a8.536,8.536,0,0,0-8.533,8.533v51.2a8.536,8.536,0,0,0,8.533,8.533H93.866a8.536,8.536,0,0,0,8.533-8.533v-51.2A8.535,8.535,0,0,0,93.867,153.6Zm-8.534,51.2H68.267V170.667H85.334V204.8Z" fill="brown"/>
      <path id="Path_9" data-name="Path 9" d="M273.067,213.333a8.536,8.536,0,0,0,8.533,8.533h34.133a8.536,8.536,0,0,0,8.533-8.533v-51.2a8.536,8.536,0,0,0-8.533-8.533H281.6a8.536,8.536,0,0,0-8.533,8.533v51.2Zm17.066-42.666H307.2V204.8H290.133V170.667Z" fill="brown"/>
      <path id="Path_10" data-name="Path 10" d="M503.467,102.4h-102.4a8.533,8.533,0,0,0,0,17.066h93.867v342.9a24.382,24.382,0,0,0-12.919-1.186,34.079,34.079,0,0,0-59.494,0,25.092,25.092,0,0,0-4.386-.384,25.6,25.6,0,0,0,0,51.2H486.4A25.631,25.631,0,0,0,512,486.4V110.933A8.536,8.536,0,0,0,503.467,102.4ZM486.4,494.933H418.133a8.533,8.533,0,0,1,0-17.066,8.432,8.432,0,0,1,4.625,1.391A8.533,8.533,0,0,0,435.7,474.01a17,17,0,0,1,33.144,0,8.533,8.533,0,0,0,12.937,5.248c5.555-3.584,13.158.8,13.158,7.142A8.548,8.548,0,0,1,486.4,494.933Z" fill="brown"/>
      <path id="Path_11" data-name="Path 11" d="M281.6,119.467h34.133a8.536,8.536,0,0,0,8.533-8.533v-51.2a8.536,8.536,0,0,0-8.533-8.533H281.6a8.536,8.536,0,0,0-8.533,8.533v51.2A8.536,8.536,0,0,0,281.6,119.467Zm8.533-51.2H307.2V102.4H290.133V68.267Z" fill="brown"/>
      <path id="Path_12" data-name="Path 12" d="M273.067,315.733a8.536,8.536,0,0,0,8.533,8.533h34.133a8.536,8.536,0,0,0,8.533-8.533v-51.2A8.536,8.536,0,0,0,315.733,256H281.6a8.536,8.536,0,0,0-8.533,8.533v51.2Zm17.066-42.666H307.2V307.2H290.133V273.067Z" fill="brown"/>
      <path id="Path_13" data-name="Path 13" d="M196.267,119.467H230.4a8.536,8.536,0,0,0,8.533-8.533v-51.2A8.536,8.536,0,0,0,230.4,51.2H196.267a8.536,8.536,0,0,0-8.533,8.533v51.2A8.535,8.535,0,0,0,196.267,119.467Zm8.533-51.2h17.067V102.4H204.8Z" fill="brown"/>
      <path id="Path_14" data-name="Path 14" d="M249.941,412.075a8.534,8.534,0,1,0,12.118,0A8.973,8.973,0,0,0,249.941,412.075Z" fill="brown"/>
      <path id="Path_15" data-name="Path 15" d="M187.733,315.733a8.536,8.536,0,0,0,8.533,8.533H230.4a8.536,8.536,0,0,0,8.533-8.533v-51.2A8.536,8.536,0,0,0,230.4,256H196.267a8.536,8.536,0,0,0-8.533,8.533v51.2ZM204.8,273.067h17.067V307.2H204.8Z" fill="brown"/>
      <path id="Path_16" data-name="Path 16" d="M170.667,366.933a8.536,8.536,0,0,0,8.533,8.533h25.6v76.8a8.533,8.533,0,0,0,17.066,0v-76.8h68.267v76.8a8.533,8.533,0,0,0,17.066,0v-76.8h25.6a8.533,8.533,0,0,0,0-17.066H179.2A8.536,8.536,0,0,0,170.667,366.933Z" fill="brown"/>
      <path id="Path_17" data-name="Path 17" d="M409.6,315.733a8.536,8.536,0,0,0,8.533,8.533h34.133a8.536,8.536,0,0,0,8.533-8.533v-51.2A8.536,8.536,0,0,0,452.266,256H418.133a8.536,8.536,0,0,0-8.533,8.533Zm17.067-42.666h17.067V307.2H426.667Z" fill="brown"/>
      <path id="Path_18" data-name="Path 18" d="M366.933,0H145.067a8.536,8.536,0,0,0-8.533,8.533V452.266a8.533,8.533,0,0,0,17.066,0V17.066H358.4v435.2a8.533,8.533,0,0,0,17.066,0V8.533A8.535,8.535,0,0,0,366.933,0Z" fill="brown"/>
    </g>
  </g>
</svg>
