<svg xmlns="http://www.w3.org/2000/svg" width="429.173" height="511.997" viewBox="0 0 429.173 511.997">
  <g id="service-7" transform="translate(-41.413)">
    <g id="Group_1" data-name="Group 1">
      <path id="Path_1" data-name="Path 1" d="M465.135,165.947l-139.5-39.857V56.438h88.512V72.474H400.949a7.511,7.511,0,0,0-7.512,7.512v31.062a7.511,7.511,0,0,0,7.512,7.512h41.415a7.511,7.511,0,0,0,7.512-7.512V79.987a7.511,7.511,0,0,0-7.512-7.512h-13.2V56.438h33.9A7.512,7.512,0,0,0,465.136,41.7L320.359.341l-.025-.007-.152-.043c-.059-.017-.117-.026-.176-.041-.161-.042-.323-.082-.488-.113-.12-.023-.239-.038-.359-.055s-.237-.035-.358-.046c-.166-.015-.332-.021-.5-.025-.062,0-.122-.011-.184-.011H193.877c-.057,0-.113.007-.17.009-.172,0-.344.01-.516.026-.115.01-.228.028-.343.044s-.248.033-.374.057c-.162.031-.321.07-.478.111-.061.016-.122.025-.183.042l-.156.045-.018,0L46.861,41.7a7.512,7.512,0,0,0,2.065,14.735h33.9V72.474h-13.2a7.511,7.511,0,0,0-7.512,7.512v31.062a7.511,7.511,0,0,0,7.512,7.512h41.415a7.511,7.511,0,0,0,7.512-7.512V79.987a7.511,7.511,0,0,0-7.512-7.512h-13.2V56.438h88.514v69.651l-139.5,39.858a7.512,7.512,0,0,0,2.065,14.735h33.9v16.036h-13.2a7.511,7.511,0,0,0-7.512,7.512v31.062a7.511,7.511,0,0,0,7.512,7.512h41.415a7.511,7.511,0,0,0,7.512-7.512V204.23a7.511,7.511,0,0,0-7.512-7.512h-13.2V180.682h88.514v74.265L155.642,362.473a.065.065,0,0,1,0,.013l-.06.209,0,.01-.014.049a.2.2,0,0,1-.008.026L126.086,465.91H111.045a7.511,7.511,0,0,0-7.512,7.512v23.551H88.183a7.512,7.512,0,1,0,0,15.024h335.63a7.512,7.512,0,0,0,0-15.024h-15.35V473.422a7.511,7.511,0,0,0-7.512-7.512H385.909L356.444,362.787l-.013-.046-.068-.239c0-.012-.007-.024-.01-.036l-30.721-107.52V180.681h88.512v16.036H400.95a7.511,7.511,0,0,0-7.512,7.512v31.062a7.511,7.511,0,0,0,7.512,7.512h41.415a7.511,7.511,0,0,0,7.512-7.512V204.23a7.511,7.511,0,0,0-7.512-7.512h-13.2V180.682h33.9a7.512,7.512,0,0,0,2.062-14.735ZM434.852,87.5v16.038H408.461V87.5ZM325.631,17.472l83.8,23.943h-83.8V17.472ZM103.535,87.5v16.038H77.144V87.5Zm0,124.242v16.038H77.144V211.741ZM201.389,15.024H310.607V41.415H201.389ZM310.607,56.438v61.281L218.685,56.438h91.922ZM201.389,62.963l91.92,61.28h-91.92V62.963Zm0,76.3H310.607v26.392H201.389ZM186.647,357.2,256,308.653,325.351,357.2Zm130.714,15.024L256,402.9l-61.362-30.682ZM217.708,263.511h76.58L256,290.313Zm92.9-82.829v61.28l-91.921-61.28Zm-109.218,6.524,91.923,61.282H201.389ZM102.56,41.414l83.8-23.943V41.414Zm0,124.244,83.8-23.945v23.945h-83.8ZM198.2,268.2,242.9,299.484l-67.042,46.928ZM167.552,375.477,239.2,411.3l-95.533,47.767ZM380.237,480.939h0l.028,0H393.44v16.039H118.56V480.937h13.172l.028,0,.034,0h70.9a7.512,7.512,0,0,0,0-15.024H163.574L256,419.7l92.424,46.212H236.184a7.512,7.512,0,1,0,0,15.024H380.2Zm-11.909-21.87L272.8,411.3l71.649-35.825ZM336.14,346.413,269.1,299.484l44.7-31.286ZM325.631,165.658V141.714l83.8,23.944Zm109.221,46.083v16.038H408.461V211.741Z" fill="brown"/>
    </g>
  </g>
</svg>
