<svg xmlns="http://www.w3.org/2000/svg" width="640.002" height="586.403" viewBox="0 0 640.002 586.403">
  <g id="hand" transform="translate(0 1.418)">
    <path id="Path_1" data-name="Path 1" d="M637.777,266.387a47.462,47.462,0,0,0-47.2-33.309l-4.574.188A53.148,53.148,0,0,0,550.507,248.8L479.793,318.77a49.59,49.59,0,0,0-41.512-22.457H338.535a204.614,204.614,0,0,1-54.555-7.25c-45.273-12.531-88.473-3.484-124.93,26.16a180.658,180.658,0,0,0-33.215,35.813A44.843,44.843,0,0,0,67.98,356.8L3.507,423.723a12.534,12.534,0,0,0,.227,17.621l51.848,51.141a12.536,12.536,0,1,0,17.606-17.852L30.16,432.2l55.875-58.008a19.807,19.807,0,0,1,28.051-.473l99.691,96.742a19.8,19.8,0,0,1,.391,28.035l-54.906,56.336-14.129-13.457a12.533,12.533,0,1,0-17.285,18.152l23.1,22a12.541,12.541,0,0,0,17.625-.328l63.555-65.211a44.925,44.925,0,0,0,9.648-47.715l22.387-2.605a273.141,273.141,0,0,1,31.41-1.824H447.34c2.324,0,4.676-.1,6.992-.293l14.543-1.211a84.16,84.16,0,0,0,57.164-29.375l102.27-120.32a48.765,48.765,0,0,0,9.469-46.258Zm-28.57,30.02L506.934,416.727A59.144,59.144,0,0,1,466.8,437.355l-14.551,1.211c-1.621.137-3.277.207-4.906.207H295.57a298.654,298.654,0,0,0-34.3,1.984l-36.25,4.219-80.2-77.328a155.142,155.142,0,0,1,30.051-32.973c30.32-24.652,64.777-31.871,102.422-21.453a229.569,229.569,0,0,0,61.242,8.156h99.746a24.676,24.676,0,0,1,17.672,7.516,24.4,24.4,0,0,1,6.375,12.262,12.358,12.358,0,0,0,.418,3.359,24.471,24.471,0,0,1-5.344,16.742l-.387.484a24.408,24.408,0,0,1-19.125,9.176H351.054a12.535,12.535,0,0,0,0,25.07H437.89a49.351,49.351,0,0,0,38.684-18.566l.387-.48a49.451,49.451,0,0,0,10.879-30.867l80.344-79.5a28.2,28.2,0,0,1,18.84-8.258l4.578-.184a22.309,22.309,0,0,1,22.231,15.688,23.815,23.815,0,0,1-4.625,22.59Zm0,0" fill="brown"/>
    <path id="Path_2" data-name="Path 2" d="M99.68,394.566a33.949,33.949,0,1,0,33.949,33.945A33.985,33.985,0,0,0,99.68,394.566Zm0,42.824a8.875,8.875,0,1,1,8.875-8.879A8.888,8.888,0,0,1,99.68,437.39Zm0,0" fill="brown"/>
    <path id="Path_3" data-name="Path 3" d="M297.789,372.766l-.645.152a12.533,12.533,0,1,0,5.73,24.4l.648-.148a12.535,12.535,0,1,0-5.734-24.406Zm0,0" fill="brown"/>
    <path id="Path_4" data-name="Path 4" d="M98.066,505.438l-.648.152A12.536,12.536,0,0,0,103.156,530l.645-.148a12.537,12.537,0,0,0-5.734-24.41Zm0,0" fill="brown"/>
    <path id="Path_5" data-name="Path 5" d="M366.891,263.93c73.156,0,132.672-59.516,132.672-132.672S440.047-1.418,366.891-1.418A131.319,131.319,0,0,0,285.035,26.84a132.5,132.5,0,0,0-50.816,104.418c0,73.156,59.516,132.672,132.672,132.672ZM273.485,77.8a108.273,108.273,0,0,1,27.027-31.234,106.521,106.521,0,0,1,66.379-22.906A107.552,107.552,0,1,1,273.485,77.8Zm0,0" fill="brown"/>
    <path id="Path_6" data-name="Path 6" d="M378.008,174.164c-5.055,3-11.621,4.07-16.074,4.07-8.453,0-15.863-9.961-15.863-21.312a12.535,12.535,0,1,0-25.07,0c0,21.711,13.227,39.977,31.031,45a12.522,12.522,0,0,0,25.02-.535c18.105-4.7,33.73-18.18,33.73-41.738,0-28.246-28.844-43.656-43.656-43.656-.187,0-18.59-1.637-18.59-13.406,0-18.074,18.4-18.582,18.59-18.582,3.484,0,7.723,2.07,11.063,5.41,1.605,1.609,1.777,1.777,1.777,8.535a12.537,12.537,0,0,0,25.074-.051c0-8.012,0-17.09-9.121-26.215a44.093,44.093,0,0,0-18.891-11.32,12.528,12.528,0,0,0-25.035.73v.82c-13.7,5.09-28.527,17.254-28.527,40.672,0,28.723,29.855,38.434,43.57,38.473,3.766.3,18.672,6.906,18.672,18.586,0,6.875-2.371,11.348-7.7,14.516Zm0,0" fill="brown"/>
  </g>
</svg>
