<svg xmlns="http://www.w3.org/2000/svg" width="404.306" height="511.922" viewBox="0 0 404.306 511.922">
  <g id="XMLID_1364_" transform="translate(-53.808 0.001)">
    <g id="XMLID_141_">
      <path id="XMLID_162_" d="M456.775,448.9l-64.76-112.168a57.928,57.928,0,0,0,20.147-36.486,37.682,37.682,0,0,1,14.355-24.866,58.071,58.071,0,0,0,18.146-67.719,37.683,37.683,0,0,1,0-28.712,58.071,58.071,0,0,0-18.146-67.719,37.678,37.678,0,0,1-14.355-24.866A58.072,58.072,0,0,0,362.587,36.79a37.683,37.683,0,0,1-24.864-14.356A58.071,58.071,0,0,0,270,4.288a37.683,37.683,0,0,1-28.712,0,58.069,58.069,0,0,0-67.719,18.146A37.687,37.687,0,0,1,148.706,36.79,58.068,58.068,0,0,0,99.133,86.364,37.687,37.687,0,0,1,84.777,111.23a58.07,58.07,0,0,0-18.146,67.719,37.683,37.683,0,0,1,0,28.712A58.069,58.069,0,0,0,84.777,275.38a37.687,37.687,0,0,1,14.356,24.865,57.928,57.928,0,0,0,20.573,36.837L55.148,448.9A10,10,0,0,0,66.4,463.558l56.271-15.078,15.013,56.029A10,10,0,0,0,156,506.921l69.662-120.657a57.441,57.441,0,0,0,15.628-3.944,37.683,37.683,0,0,1,28.712,0,57.464,57.464,0,0,0,16.3,4.022l69.616,120.579a10,10,0,0,0,18.32-2.412l15.014-56.029,56.271,15.078A10,10,0,0,0,456.775,448.9ZM150.75,476.014,139.4,433.645a10,10,0,0,0-12.247-7.071L84.539,437.991l52.543-91.007a57.513,57.513,0,0,0,11.623,2.835,37.687,37.687,0,0,1,24.866,14.356,57.8,57.8,0,0,0,30.069,20.232Zm82.964-112.2a38.011,38.011,0,0,1-44.328-11.877A57.57,57.57,0,0,0,151.4,330a38.011,38.011,0,0,1-32.45-32.451,57.576,57.576,0,0,0-21.932-37.987,38.011,38.011,0,0,1-11.878-44.328,57.562,57.562,0,0,0,0-43.863,38.011,38.011,0,0,1,11.878-44.328,57.571,57.571,0,0,0,21.932-37.987A38.013,38.013,0,0,1,151.4,56.607a57.568,57.568,0,0,0,37.987-21.931A37.975,37.975,0,0,1,233.713,22.8a57.574,57.574,0,0,0,43.864,0A38.01,38.01,0,0,1,321.9,34.676,57.566,57.566,0,0,0,359.89,56.607a38.013,38.013,0,0,1,32.451,32.451,57.571,57.571,0,0,0,21.932,37.987,38.011,38.011,0,0,1,11.878,44.328,57.571,57.571,0,0,0,0,43.863,38.013,38.013,0,0,1-11.878,44.328,57.572,57.572,0,0,0-21.932,37.986A38.012,38.012,0,0,1,359.891,330,57.563,57.563,0,0,0,321.9,351.933a38.007,38.007,0,0,1-44.327,11.877,57.576,57.576,0,0,0-43.863,0Zm151.058,62.763a10,10,0,0,0-12.247,7.071l-11.354,42.369-52.98-91.765a57.8,57.8,0,0,0,29.531-20.074,37.675,37.675,0,0,1,24.864-14.356,57.461,57.461,0,0,0,12.14-3.032l52.656,91.2Z" fill="brown"/>
      <path id="XMLID_1190_" d="M210.2,156.314l-31.113,31.112a10,10,0,0,0,0,14.142l58.353,58.354a10,10,0,0,0,14.142,0l81.25-81.25a10,10,0,0,0,0-14.142l-31.112-31.113a10,10,0,0,0-14.142,0l-43.066,43.067-20.168-20.169a10,10,0,0,0-14.144,0ZM237.441,197.7a10,10,0,0,0,14.142,0l43.066-43.067L311.62,171.6l-67.108,67.108L200.3,194.5l16.971-16.97Z" fill="brown"/>
      <path id="XMLID_1191_" d="M385.961,196.67a130.038,130.038,0,0,0-82.1-120.888,10,10,0,0,0-7.373,18.592,110,110,0,1,1-81.054,0,10,10,0,0,0-7.372-18.592,130.014,130.014,0,1,0,177.9,120.889Z" fill="brown"/>
      <path id="XMLID_1218_" d="M255.961,86.666a10,10,0,1,0-7.07-2.93A10.029,10.029,0,0,0,255.961,86.666Z" fill="brown"/>
    </g>
  </g>
</svg>
