<svg xmlns="http://www.w3.org/2000/svg" width="512" height="492.115" viewBox="0 0 512 492.115">
  <g id="ok" transform="translate(0 -9.942)">
    <path id="Path_1" data-name="Path 1" d="M494.123,208.2c-5.239-8.8-10.188-17.111-12.876-25.391-2.855-8.794-3.814-18.751-4.828-29.293-1.622-16.845-3.3-34.264-13.3-48.01C453.009,91.62,436.891,84.647,421.3,77.9c-9.653-4.176-18.77-8.121-26.127-13.475-7.218-5.253-13.7-12.637-20.553-20.454-11.268-12.844-22.919-26.125-39.5-31.508-15.863-5.151-32.793-1.4-49.166,2.23-10.047,2.227-20.436,4.529-29.959,4.529s-19.912-2.3-29.959-4.529c-16.373-3.628-33.3-7.381-49.167-2.229-16.579,5.383-28.23,18.664-39.5,31.508-6.857,7.816-13.335,15.2-20.553,20.453a74.6,74.6,0,0,1-8.86,5.46,7.5,7.5,0,1,0,7.06,13.234,89.313,89.313,0,0,0,10.627-6.567c8.567-6.235,15.906-14.6,23-22.689,10.388-11.84,20.2-23.024,32.855-27.134C193.487,22.844,207.724,26,222.8,29.34c10.835,2.4,22.04,4.884,33.205,4.884s22.369-2.483,33.205-4.885c15.075-3.34,29.314-6.5,41.288-2.608,12.656,4.109,22.468,15.293,32.856,27.134,7.1,8.089,14.435,16.454,23,22.689,8.7,6.332,19.018,10.8,29,15.113,14.371,6.217,27.944,12.09,35.641,22.666,7.593,10.434,9,25.1,10.5,40.621,1.047,10.881,2.13,22.132,5.493,32.488,3.207,9.878,8.824,19.311,14.255,28.433C489.342,229.494,497,242.355,497,256s-7.658,26.507-15.766,40.124c-5.431,9.122-11.047,18.554-14.254,28.431-3.363,10.356-4.445,21.607-5.493,32.489-1.494,15.523-2.9,30.187-10.5,40.621-7.7,10.576-21.27,16.448-35.641,22.665-9.979,4.317-20.3,8.781-29,15.113-8.567,6.235-15.906,14.6-23,22.689-10.388,11.84-20.2,23.024-32.855,27.133-11.977,3.889-26.214.733-41.289-2.608-10.836-2.4-22.04-4.884-33.2-4.884s-22.369,2.483-33.205,4.884c-15.074,3.341-29.311,6.5-41.289,2.608-12.656-4.109-22.468-15.293-32.855-27.134-7.1-8.089-14.435-16.454-23-22.689-8.7-6.332-19.019-10.8-29-15.113-14.37-6.217-27.944-12.09-35.641-22.665-7.593-10.434-9-25.1-10.5-40.621-1.047-10.881-2.13-22.132-5.492-32.488-3.207-9.877-8.823-19.31-14.254-28.431C22.658,282.507,15,269.645,15,256s7.658-26.506,15.766-40.123c5.431-9.122,11.047-18.555,14.254-28.432,3.363-10.356,4.445-21.608,5.493-32.489,1.494-15.524,2.9-30.187,10.5-40.621,4.375-6.011,10.929-10.988,21.252-16.137a7.5,7.5,0,1,0-6.695-13.423C67.093,89,56.4,95.181,48.883,105.51c-10,13.746-11.68,31.164-13.3,48.01-1.014,10.542-1.973,20.5-4.828,29.294-2.688,8.28-7.637,16.591-12.876,25.39C9.088,222.964,0,238.228,0,256s9.088,33.037,17.877,47.8c5.239,8.8,10.188,17.11,12.876,25.39,2.855,8.794,3.813,18.751,4.828,29.292,1.621,16.846,3.3,34.265,13.3,48.011C58.991,420.38,75.109,427.353,90.7,434.1c9.653,4.176,18.771,8.121,26.127,13.475,7.218,5.253,13.695,12.636,20.553,20.453,11.268,12.844,22.92,26.126,39.5,31.508a54.881,54.881,0,0,0,17.084,2.524c10.633,0,21.475-2.4,32.082-4.753,10.047-2.227,20.437-4.529,29.959-4.529s19.912,2.3,29.959,4.529c16.373,3.628,33.3,7.381,49.167,2.229,16.579-5.383,28.23-18.664,39.5-31.508,6.858-7.817,13.336-15.2,20.554-20.454,7.356-5.353,16.474-9.3,26.127-13.475,15.587-6.744,31.7-13.717,41.813-27.606,10-13.746,11.68-31.165,13.3-48.01,1.014-10.542,1.973-20.5,4.828-29.293,2.688-8.28,7.637-16.591,12.876-25.39C502.912,289.036,512,273.772,512,256s-9.088-33.036-17.877-47.8Z" fill="brown"/>
    <path id="Path_2" data-name="Path 2" d="M72.054,196.233c-2.13,6.561-6.1,13.231-10.308,20.294C54.523,228.658,47.054,241.2,47.054,256s7.469,27.342,14.692,39.474c4.205,7.063,8.177,13.734,10.308,20.294,2.267,6.982,3.036,14.978,3.851,23.444,1.332,13.845,2.71,28.162,11.048,39.619,8.422,11.573,21.669,17.3,34.479,22.846,7.751,3.354,15.072,6.521,20.908,10.768,5.724,4.166,10.924,10.093,16.429,16.369,9.261,10.557,18.837,21.472,32.649,25.957a45.893,45.893,0,0,0,14.29,2.119c8.756,0,17.63-1.967,26.313-3.891,8.441-1.871,16.414-3.638,23.978-3.638s15.537,1.767,23.978,3.638c13.46,2.983,27.375,6.068,40.6,1.772,13.811-4.485,23.387-15.4,32.648-25.957,5.505-6.275,10.706-12.2,16.429-16.369,5.836-4.247,13.157-7.414,20.908-10.768,12.81-5.543,26.057-11.273,34.479-22.846,8.338-11.457,9.715-25.773,11.048-39.618.815-8.466,1.585-16.463,3.852-23.444,2.13-6.561,6.1-13.232,10.308-20.3,7.223-12.131,14.692-24.675,14.692-39.473s-7.469-27.342-14.692-39.473c-4.2-7.063-8.177-13.734-10.308-20.295-2.267-6.981-3.037-14.978-3.852-23.444-1.332-13.845-2.71-28.161-11.048-39.618-8.422-11.573-21.669-17.3-34.479-22.846-7.751-3.354-15.072-6.521-20.908-10.768-5.724-4.166-10.924-10.093-16.429-16.369-9.261-10.557-18.837-21.472-32.648-25.957-13.229-4.295-27.144-1.211-40.6,1.772-8.441,1.871-16.414,3.638-23.978,3.638S240.462,60.874,232.021,59c-13.459-2.983-27.376-6.067-40.6-1.772-13.812,4.484-23.388,15.4-32.649,25.957-5.505,6.275-10.705,12.2-16.429,16.369-5.836,4.247-13.157,7.415-20.908,10.768-12.81,5.542-26.057,11.273-34.479,22.846-8.338,11.457-9.715,25.773-11.048,39.618-.815,8.465-1.584,16.461-3.851,23.444Zm18.782-22.008c1.192-12.386,2.318-24.084,8.245-32.229,6.011-8.259,16.841-12.945,28.308-17.906,8.16-3.53,16.6-7.181,23.778-12.407,7.073-5.147,13.075-11.988,18.879-18.6,8.288-9.448,16.117-18.372,26.005-21.582,9.339-3.031,20.7-.515,32.725,2.15C237.634,75.61,246.794,77.64,256,77.64s18.366-2.03,27.224-3.993c12.025-2.666,23.383-5.184,32.725-2.15,9.888,3.21,17.717,12.134,26.005,21.582,5.8,6.616,11.806,13.457,18.879,18.6,7.18,5.226,15.618,8.877,23.778,12.407,11.466,4.961,22.3,9.646,28.308,17.906,5.927,8.145,7.053,19.843,8.245,32.229.856,8.9,1.742,18.1,4.516,26.64,2.649,8.159,7.243,15.874,11.686,23.336,6.47,10.866,12.581,21.129,12.581,31.8s-6.111,20.934-12.581,31.8c-4.443,7.461-9.037,15.177-11.686,23.336-2.774,8.543-3.66,17.743-4.516,26.64-1.192,12.386-2.318,24.085-8.245,32.229-6.011,8.259-16.841,12.945-28.308,17.906-8.16,3.53-16.6,7.181-23.778,12.407-7.073,5.147-13.075,11.989-18.879,18.6-8.288,9.448-16.117,18.371-26.005,21.582-9.34,3.033-20.7.515-32.725-2.15-8.858-1.963-18.018-3.993-27.224-3.993s-18.366,2.03-27.224,3.993c-12.025,2.665-23.385,5.183-32.725,2.15-9.888-3.21-17.717-12.134-26.005-21.582-5.8-6.616-11.806-13.457-18.879-18.6-7.18-5.226-15.618-8.876-23.778-12.407-11.466-4.961-22.3-9.646-28.308-17.906-5.927-8.145-7.053-19.844-8.245-32.229-.856-8.9-1.741-18.1-4.515-26.639-2.649-8.159-7.243-15.874-11.686-23.336-6.47-10.866-12.581-21.129-12.581-31.8s6.111-20.933,12.581-31.8c4.442-7.462,9.037-15.178,11.686-23.336,2.773-8.543,3.659-17.743,4.515-26.64Z" fill="brown"/>
    <path id="Path_3" data-name="Path 3" d="M228.983,355.427c-.438,0-.875-.007-1.314-.022a38.942,38.942,0,0,1-28.6-14.016l-37.233-44.8a23.446,23.446,0,0,1,3.042-32.979l10.438-8.675a23.446,23.446,0,0,1,32.979,3.042l18.758,22.57a4.223,4.223,0,0,0,6.3.213c.063-.066.127-.131.193-.2l95.806-93.476a23.418,23.418,0,0,1,33.006-.7l9.827,9.362a23.444,23.444,0,0,1,.8,33.108c-.052.055-.105.108-.158.161L321.92,279.345a7.5,7.5,0,0,1-10.545-10.668l50.818-50.23a8.428,8.428,0,0,0-.354-11.833l-9.828-9.362a8.418,8.418,0,0,0-11.9.288c-.064.066-.128.131-.193.2l-95.81,93.479a19.223,19.223,0,0,1-28.6-1.083l-18.758-22.57a8.429,8.429,0,0,0-11.855-1.094l-10.439,8.675A8.429,8.429,0,0,0,173.365,287L210.6,331.8a23.908,23.908,0,0,0,35.7,1.209c.052-.055.1-.108.158-.161L288.5,291.282a7.5,7.5,0,0,1,10.546,10.668l-41.973,41.487a38.93,38.93,0,0,1-28.091,11.99Z" fill="brown"/>
  </g>
</svg>
