<svg xmlns="http://www.w3.org/2000/svg" width="512" height="511.942" viewBox="0 0 512 511.942">
  <g id="review" transform="translate(0 -0.029)">
    <g id="Group_2" data-name="Group 2">
      <g id="Group_1" data-name="Group 1">
        <path id="Path_7" data-name="Path 7" d="M54.522,45.351a10,10,0,1,0,0,20h.1a10,10,0,0,0-.1-20Z" fill="brown"/>
      </g>
    </g>
    <g id="Group_4" data-name="Group 4">
      <g id="Group_3" data-name="Group 3">
        <path id="Path_8" data-name="Path 8" d="M102.467,45.351a10,10,0,1,0,0,20h.1a10,10,0,1,0-.1-20Z" fill="brown"/>
      </g>
    </g>
    <g id="Group_6" data-name="Group 6">
      <g id="Group_5" data-name="Group 5">
        <path id="Path_9" data-name="Path 9" d="M150.412,45.351a10,10,0,0,0,0,20h.1a10,10,0,0,0-.1-20Z" fill="brown"/>
      </g>
    </g>
    <g id="Group_8" data-name="Group 8">
      <g id="Group_7" data-name="Group 7">
        <path id="Path_10" data-name="Path 10" d="M395.663,45.351H274.322a10,10,0,0,0,0,20H395.663a10,10,0,0,0,0-20Z" fill="brown"/>
      </g>
    </g>
    <g id="Group_10" data-name="Group 10">
      <g id="Group_9" data-name="Group 9">
        <path id="Path_11" data-name="Path 11" d="M233.912,396.912a9.991,9.991,0,1,0,2.93,7.069A10.077,10.077,0,0,0,233.912,396.912Z" fill="brown"/>
      </g>
    </g>
    <g id="Group_12" data-name="Group 12">
      <g id="Group_11" data-name="Group 11">
        <path id="Path_12" data-name="Path 12" d="M458.006,128.273V50.023A50.05,50.05,0,0,0,408.012.029H49.994A50.051,50.051,0,0,0,0,50.024V365.957a48.078,48.078,0,0,0,48.023,48.024H85.549V415.6a7.213,7.213,0,0,1-5.789,7.056l-37.682,7.508A48.491,48.491,0,0,0,3.2,472.634L.117,500.888a10,10,0,0,0,9.94,11.083H226.84a10,10,0,0,0,9.939-11.085l-3.089-28.263a48.491,48.491,0,0,0-38.878-42.454l-37.689-7.509a7.212,7.212,0,0,1-5.789-7.056v-9.389c0-.051-.007-.1-.008-.151l16.947-9.688c.187-.106.369-.219.548-.337,9.087-6,15.054-16.687,15.963-28.586.02-.254.029-.508.029-.762V325.685c5.975-3.892,10.337-10.968,10.337-23.354l.016-22.468a10.019,10.019,0,0,0-.06-1.1A36.919,36.919,0,0,0,158.043,243.6H73.073c-3.73,0-7.192-1.976-9.44-3.633a13.728,13.728,0,0,0-21.9,11.023v32.534a46.233,46.233,0,0,0,10.353,29.193v53.969q0,.381.029.762A38.119,38.119,0,0,0,65.42,393.982h-17.4A28.055,28.055,0,0,1,20,365.957V156.081H131.661a10,10,0,0,0,0-20H20v-28H438.009V128H275.7a59.728,59.728,0,0,0-59.66,59.659v83.691a59.728,59.728,0,0,0,59.66,59.659h12.5v29.235a10,10,0,0,0,17.069,7.07l36.3-36.306H438.01v34.951a28.059,28.059,0,0,1-28.027,28.027H267.529a10,10,0,0,0,0,20H409.982a48.078,48.078,0,0,0,48.024-48.024V330.731A59.737,59.737,0,0,0,512,271.348V187.657A59.738,59.738,0,0,0,458.006,128.273ZM157.8,443.187l33.1,6.6a28.568,28.568,0,0,1,22.908,25.012l1.877,17.178H21.207L23.08,474.8a28.566,28.566,0,0,1,22.907-25.02l33.107-6.6a59.225,59.225,0,0,0,78.708,0Zm-58.66-10.1a27.154,27.154,0,0,0,6.325-15.685,29.1,29.1,0,0,0,25.951.007,27.162,27.162,0,0,0,6.329,15.684,39.3,39.3,0,0,1-38.6-.006Zm65.675-66.808c-.5,5.449-3.078,10.35-6.788,12.925l-33.592,19.2c-.187.106-.369.219-.548.337a9.5,9.5,0,0,1-10.879,0c-.175-.115-.354-.226-.536-.33L78.976,379.2c-3.776-2.613-6.39-7.516-6.894-12.928V327.109a46.222,46.222,0,0,0,16.11,2.884h76.625v36.282ZM61.73,283.531V261.512A32.694,32.694,0,0,0,73.075,263.6h84.97a17.028,17.028,0,0,1,17.109,16.627c0,.111.009.223.016.334l-.016,21.76v.007c0,5.062-1.034,6.341-1.152,6.471-.4.442-2.155,1.191-6.153,1.191H88.193A26.491,26.491,0,0,1,61.73,283.531ZM20,88.089V50.024a30.03,30.03,0,0,1,30-30H408.012a30.03,30.03,0,0,1,30,30V88.09H20ZM492,271.348a39.707,39.707,0,0,1-39.662,39.661H337.424a10,10,0,0,0-7.07,2.929L308.191,336.1V321.008a10,10,0,0,0-10-10H275.7a39.707,39.707,0,0,1-39.662-39.661V187.657A39.707,39.707,0,0,1,275.7,148H452.34A39.707,39.707,0,0,1,492,187.657v83.691Z" fill="brown"/>
      </g>
    </g>
    <g id="Group_14" data-name="Group 14">
      <g id="Group_13" data-name="Group 13">
        <path id="Path_13" data-name="Path 13" d="M284.027,199.125a30,30,0,1,0,30,30A30.031,30.031,0,0,0,284.027,199.125Zm0,39.995a10,10,0,1,1,10-10A10.01,10.01,0,0,1,284.027,239.12Z" fill="brown"/>
      </g>
    </g>
    <g id="Group_16" data-name="Group 16">
      <g id="Group_15" data-name="Group 15">
        <path id="Path_14" data-name="Path 14" d="M364.017,199.125a30,30,0,1,0,30,30A30.03,30.03,0,0,0,364.017,199.125Zm0,39.995a10,10,0,1,1,10-10A10.01,10.01,0,0,1,364.017,239.12Z" fill="brown"/>
      </g>
    </g>
    <g id="Group_18" data-name="Group 18">
      <g id="Group_17" data-name="Group 17">
        <path id="Path_15" data-name="Path 15" d="M444.008,199.125a30,30,0,1,0,30,30A30.03,30.03,0,0,0,444.008,199.125Zm0,39.995a10,10,0,1,1,10-10A10.01,10.01,0,0,1,444.008,239.12Z" fill="brown"/>
      </g>
    </g>
    <g id="Group_20" data-name="Group 20">
      <g id="Group_19" data-name="Group 19">
        <path id="Path_16" data-name="Path 16" d="M176.227,139.013a9.989,9.989,0,1,0,2.931,7.068A10.07,10.07,0,0,0,176.227,139.013Z" fill="brown"/>
      </g>
    </g>
  </g>
</svg>
