<svg xmlns="http://www.w3.org/2000/svg" width="62" height="62" viewBox="0 0 62 62">
  <g id="service-10" transform="translate(-1 -1)">
    <path id="Path_1" data-name="Path 1" d="M58,53H41V41H39V21.7L34.535,15H30V10H46v1a2,2,0,0,0,2,2h3V25.142a4,4,0,0,0-2.92,3.065A9.011,9.011,0,0,0,41,37a5.009,5.009,0,0,0,4,4.9V51H59V41.9A5.009,5.009,0,0,0,63,37a9.011,9.011,0,0,0-7.08-8.793A4,4,0,0,0,53,25.142V13h3a2,2,0,0,0,2-2V10h1a3,3,0,0,0,0-6H58V3a2,2,0,0,0-2-2H48a2,2,0,0,0-2,2V4H30a3,3,0,0,0-3-3H15a3,3,0,0,0-3,3V15H7.465L3,21.7V54.025A4.983,4.983,0,0,0,6,63H58a5,5,0,0,0,0-10ZM43,37a7,7,0,0,1,5.216-6.763A3.99,3.99,0,0,0,51,32.858V37H45v2.816A3,3,0,0,1,43,37Zm8,2h2v2H51Zm6,10H47V39h2v4h6V39h2ZM55.784,30.237A7,7,0,0,1,61,37a3,3,0,0,1-2,2.816V37H53V32.858a3.991,3.991,0,0,0,2.784-2.621ZM54,29a2,2,0,1,1-2-2A2,2,0,0,1,54,29ZM59,6a1,1,0,0,1,0,2H58V6ZM48,3h8v8H48Zm5,55a3,3,0,1,1-3-3A3,3,0,0,1,53,58ZM11,58a3,3,0,1,1,3,3A3,3,0,0,1,11,58Zm4-15h2v2H15Zm4,4V43h2V53H11V43h2v4Zm-1.026,8h4.051a4.9,4.9,0,0,0,0,6H17.975a4.9,4.9,0,0,0,0-6ZM23,58a3,3,0,1,1,3,3A3,3,0,0,1,23,58Zm6.974-3h4.051a4.9,4.9,0,0,0,0,6H29.975a4.9,4.9,0,0,0,0-6ZM35,58a3,3,0,1,1,3,3A3,3,0,0,1,35,58Zm6.974-3h4.051a4.9,4.9,0,0,0,0,6H41.975a4.9,4.9,0,0,0,0-6ZM29,53V43h2v4h6V43h2V53Zm4-10h2v2H33ZM28,9H14V7H28ZM46,6V8H30V6ZM15,3H27a1,1,0,0,1,1,1V5H14V4A1,1,0,0,1,15,3Zm-1,8H28v4H14ZM8.535,17h24.93l2.667,4H5.868ZM5,23H37V41H27V53H23V41H9V53H6a5,5,0,0,0-1,.1ZM3,58a3,3,0,0,1,3-3h4.026a4.9,4.9,0,0,0,0,6H6A3,3,0,0,1,3,58Zm55,3H53.974a4.9,4.9,0,0,0,0-6H58a3,3,0,0,1,0,6Z" fill="brown"/>
    <path id="Path_2" data-name="Path 2" d="M52,4a3,3,0,1,0,3,3A3,3,0,0,0,52,4Zm0,4a1,1,0,1,1,1-1A1,1,0,0,1,52,8Z" fill="brown"/>
    <path id="Path_3" data-name="Path 3" d="M19,25H7V39H19ZM17,37H9V27h8Z" fill="brown"/>
    <path id="Path_4" data-name="Path 4" d="M24,31a3,3,0,1,0-3-3A3,3,0,0,0,24,31Zm0-4a1,1,0,1,1-1,1A1,1,0,0,1,24,27Z" fill="brown"/>
    <path id="Path_5" data-name="Path 5" d="M32,31a3,3,0,1,0-3-3A3,3,0,0,0,32,31Zm0-4a1,1,0,1,1-1,1A1,1,0,0,1,32,27Z" fill="brown"/>
    <path id="Path_6" data-name="Path 6" d="M21,33H35v2H21Z" fill="brown"/>
    <path id="Path_7" data-name="Path 7" d="M21,37h2v2H21Z" fill="brown"/>
    <path id="Path_8" data-name="Path 8" d="M25,37h6v2H25Z" fill="brown"/>
    <path id="Path_9" data-name="Path 9" d="M33,37h2v2H33Z" fill="brown"/>
  </g>
</svg>
