<svg id="maps-and-flags" xmlns="http://www.w3.org/2000/svg" width="512" height="512" viewBox="0 0 512 512">
  <g id="Group_2" data-name="Group 2">
    <g id="Group_1" data-name="Group 1">
      <path id="Path_7" data-name="Path 7" d="M256,0C114.5,0,0,114.509,0,256S114.509,512,256,512,512,397.491,512,256,397.491,0,256,0Zm0,477.867C133.663,477.867,34.133,378.338,34.133,256S133.663,34.133,256,34.133,477.867,133.663,477.867,256,378.337,477.867,256,477.867Z" fill="brown"/>
    </g>
  </g>
  <g id="Group_4" data-name="Group 4">
    <g id="Group_3" data-name="Group 3">
      <path id="Path_8" data-name="Path 8" d="M391.515,161.929a17.067,17.067,0,0,0-24.136,0L215.442,313.866l-70.82-70.819a17.067,17.067,0,1,0-24.136,24.136l82.887,82.887a17.07,17.07,0,0,0,24.136,0L391.515,186.064A17.065,17.065,0,0,0,391.515,161.929Z" fill="brown"/>
    </g>
  </g>
</svg>
