<svg xmlns="http://www.w3.org/2000/svg" width="379.996" height="512" viewBox="0 0 379.996 512">
  <g id="medal" transform="translate(-0.5)">
    <path id="Path_7" data-name="Path 7" d="M40.5,190c0,82.711,67.289,150,150,150s150-67.289,150-150S273.211,40,190.5,40,40.5,107.289,40.5,190Zm150-130a130,130,0,1,1-130,130A130.145,130.145,0,0,1,190.5,60Zm0,0" fill="brown"/>
    <path id="Path_8" data-name="Path 8" d="M97.891,172.172l38.762,38.191-8.918,53.676a10,10,0,0,0,14.473,10.516L190.5,249.477l48.289,25.078a10,10,0,0,0,14.473-10.516l-8.918-53.676,38.762-38.191a10,10,0,0,0-5.531-17.012l-53.793-8.1-24.34-48.676a10,10,0,0,0-17.887,0l-24.34,48.676-53.793,8.1a10,10,0,0,0-5.531,17.012Zm67.437-6.105a10,10,0,0,0,7.457-5.414L190.5,125.219l17.715,35.434a10,10,0,0,0,7.457,5.414l39.152,5.895-28.215,27.793a10.018,10.018,0,0,0-2.848,8.766l6.492,39.066-35.148-18.25a10,10,0,0,0-9.215,0l-35.148,18.25,6.492-39.066a10,10,0,0,0-2.848-8.766l-28.211-27.793Zm0,0" fill="brown"/>
    <path id="Path_9" data-name="Path 9" d="M200.5,10a10,10,0,1,1-10-10A10,10,0,0,1,200.5,10Zm0,0" fill="brown"/>
    <path id="Path_10" data-name="Path 10" d="M143.371,5.895A190.016,190.016,0,0,0,63.047,330.887L2.8,437.063a10,10,0,0,0,10.73,14.727l68.418-14.207L106,505.344a10,10,0,0,0,18.113,1.6L190.5,390.222l66.387,116.719A10,10,0,0,0,265.574,512c.293,0,.59-.012.883-.035A10.014,10.014,0,0,0,275,505.344l24.043-67.762,68.418,14.207a10,10,0,0,0,10.73-14.727L317.949,330.887A190.017,190.017,0,0,0,237.629,5.895a10,10,0,0,0-4.949,19.379A169.839,169.839,0,0,1,360.5,190c0,94.66-76.879,170-170,170-93.187,0-170-75.4-170-170A169.836,169.836,0,0,1,148.316,25.273a10,10,0,1,0-4.945-19.379Zm-25.836,472.16L97.883,422.676a10,10,0,0,0-11.457-6.449L31.1,427.715l47.68-84.031a190.4,190.4,0,0,0,94.949,35.57ZM294.57,416.226a10,10,0,0,0-11.457,6.449l-19.648,55.379-56.2-98.8a190.416,190.416,0,0,0,94.953-35.57l47.68,84.031Zm0,0" fill="brown"/>
  </g>
</svg>
