<svg id="Capa_1" enable-background="new 0 0 512 512" height="512" viewBox="0 0 512 512" width="512" xmlns="http://www.w3.org/2000/svg"><g><g><path d="m76.191 38.386h-36.366c-4.142 0-7.5 3.358-7.5 7.5v32.325c0 4.142 3.358 7.5 7.5 7.5h36.366c4.142 0 7.5-3.358 7.5-7.5v-32.325c0-4.142-3.358-7.5-7.5-7.5zm-7.5 32.325h-21.366v-17.325h21.366z"/><path d="m76.191 135.362h-36.366c-4.142 0-7.5 3.358-7.5 7.5v32.325c0 4.142 3.358 7.5 7.5 7.5h36.366c4.142 0 7.5-3.358 7.5-7.5v-32.325c0-4.142-3.358-7.5-7.5-7.5zm-7.5 32.325h-21.366v-17.325h21.366z"/><path d="m76.191 232.337h-36.366c-4.142 0-7.5 3.358-7.5 7.5v32.325c0 4.142 3.358 7.5 7.5 7.5h36.366c4.142 0 7.5-3.358 7.5-7.5v-32.325c0-4.142-3.358-7.5-7.5-7.5zm-7.5 32.326h-21.366v-17.325h21.366z"/><path d="m76.191 329.313h-36.366c-4.142 0-7.5 3.358-7.5 7.5v32.325c0 4.142 3.358 7.5 7.5 7.5h36.366c4.142 0 7.5-3.358 7.5-7.5v-32.325c0-4.142-3.358-7.5-7.5-7.5zm-7.5 32.325h-21.366v-17.325h21.366z"/><path d="m76.191 426.289h-36.366c-4.142 0-7.5 3.358-7.5 7.5v32.325c0 4.142 3.358 7.5 7.5 7.5h36.366c4.142 0 7.5-3.358 7.5-7.5v-32.325c0-4.143-3.358-7.5-7.5-7.5zm-7.5 32.325h-21.366v-17.325h21.366z"/><path d="m435.809 85.711h36.366c4.142 0 7.5-3.358 7.5-7.5v-32.325c0-4.142-3.358-7.5-7.5-7.5h-36.366c-4.142 0-7.5 3.358-7.5 7.5v32.325c0 4.143 3.358 7.5 7.5 7.5zm7.5-32.325h21.366v17.325h-21.366z"/><path d="m435.809 182.687h36.366c4.142 0 7.5-3.358 7.5-7.5v-32.325c0-4.142-3.358-7.5-7.5-7.5h-36.366c-4.142 0-7.5 3.358-7.5 7.5v32.325c0 4.142 3.358 7.5 7.5 7.5zm7.5-32.325h21.366v17.325h-21.366z"/><path d="m435.809 279.663h36.366c4.142 0 7.5-3.358 7.5-7.5v-32.325c0-4.142-3.358-7.5-7.5-7.5h-36.366c-4.142 0-7.5 3.358-7.5 7.5v32.325c0 4.142 3.358 7.5 7.5 7.5zm7.5-32.326h21.366v17.325h-21.366z"/><path d="m435.809 376.638h36.366c4.142 0 7.5-3.358 7.5-7.5v-32.325c0-4.142-3.358-7.5-7.5-7.5h-36.366c-4.142 0-7.5 3.358-7.5 7.5v32.325c0 4.142 3.358 7.5 7.5 7.5zm7.5-32.325h21.366v17.325h-21.366z"/><path d="m435.809 473.614h36.366c4.142 0 7.5-3.358 7.5-7.5v-32.325c0-4.142-3.358-7.5-7.5-7.5h-36.366c-4.142 0-7.5 3.358-7.5 7.5v32.325c0 4.142 3.358 7.5 7.5 7.5zm7.5-32.325h21.366v17.325h-21.366z"/><path d="m188.09 343.166c3.145 1.779 6.573 2.667 9.996 2.667 3.595 0 7.184-.979 10.433-2.931l115.841-69.502c6.168-3.702 9.85-10.207 9.85-17.4s-3.682-13.698-9.852-17.402l-57.78-34.66c-3.553-2.13-8.159-.978-10.29 2.574s-.979 8.159 2.574 10.29l57.778 34.658c2.319 1.393 2.57 3.639 2.57 4.54s-.25 3.147-2.568 4.539l-115.844 69.502c-2.381 1.432-4.514.525-5.321.069-.808-.457-2.687-1.821-2.687-4.611v-139c0-2.79 1.879-4.154 2.687-4.611.807-.455 2.938-1.362 5.324.071l27.96 16.78c3.551 2.132 8.158.979 10.29-2.571 2.132-3.552.98-8.159-2.571-10.29l-27.957-16.778c-6.348-3.814-13.986-3.915-20.433-.267-6.45 3.649-10.3 10.253-10.3 17.666v139c0 7.414 3.851 14.018 10.3 17.667z"/><path d="m403.484 96.976h-294.968c-4.142 0-7.5 3.358-7.5 7.5v303.049c0 4.142 3.358 7.5 7.5 7.5h294.968c4.142 0 7.5-3.358 7.5-7.5v-303.049c0-4.143-3.358-7.5-7.5-7.5zm-7.5 303.048h-279.968v-288.048h279.968z"/><path d="m504.5 0h-320.4c-4.142 0-7.5 3.358-7.5 7.5s3.358 7.5 7.5 7.5h211.88v49.65h-279.96v-49.65h32.98c4.142 0 7.5-3.358 7.5-7.5s-3.358-7.5-7.5-7.5h-141.5c-4.142 0-7.5 3.358-7.5 7.5v497c0 4.142 3.358 7.5 7.5 7.5h497c4.142 0 7.5-3.358 7.5-7.5v-497c0-4.142-3.358-7.5-7.5-7.5zm-7.5 497h-86.02v-57.15c0-4.142-3.358-7.5-7.5-7.5h-39.54c-4.142 0-7.5 3.358-7.5 7.5s3.358 7.5 7.5 7.5h32.04v49.65h-279.96v-49.65h212.82c4.142 0 7.5-3.358 7.5-7.5s-3.358-7.5-7.5-7.5h-220.32c-4.142 0-7.5 3.358-7.5 7.5v57.15h-86.02v-482h86.02v57.15c0 4.142 3.358 7.5 7.5 7.5h294.96c4.142 0 7.5-3.358 7.5-7.5v-57.15h86.02z"/></g></g></svg>