<?xml version="1.0" encoding="iso-8859-1"?>
<!-- Generator: Adobe Illustrator 19.0.0, SVG Export Plug-In . SVG Version: 6.00 Build 0)  -->
<svg version="1.1" id="Capa_1" xmlns="http://www.w3.org/2000/svg" xmlns:xlink="http://www.w3.org/1999/xlink" x="0px" y="0px"
	 viewBox="0 0 480 480" style="enable-background:new 0 0 480 480;" xml:space="preserve">
<g>
	<g>
		<path d="M472,44H8c-4.418,0-8,3.582-8,8v288c0,4.418,3.582,8,8,8h72v80c0,4.418,3.582,8,8,8h48c4.418,0,8-3.582,8-8v-80h328
			c4.418,0,8-3.582,8-8V52C480,47.582,476.418,44,472,44z M128,420H96v-16h32V420z M128,388H96V228h32V388z M100.136,212
			L112,184.312L123.864,212H100.136z M464,332H144V220c0-0.112-0.064-0.208-0.064-0.328c-0.025-0.921-0.209-1.83-0.544-2.688v-0.12
			l-24-56c-1.742-4.06-6.446-5.94-10.506-4.198c-1.886,0.809-3.389,2.312-4.198,4.198l-24,56v0.12
			c-0.335,0.858-0.519,1.767-0.544,2.688c0,0.12-0.064,0.216-0.064,0.328v112H16V60h448V332z"/>
	</g>
</g>
<g>
	<g>
		<path d="M351.513,124c-4.376-30.617-32.743-51.889-63.36-47.513C263.518,80.008,244.161,99.364,240.64,124H184
			c-4.418,0-8,3.582-8,8v112c0,4.418,3.582,8,8,8h112c4.418,0,8-3.582,8-8v-56.64C334.617,182.984,355.889,154.617,351.513,124z
			 M288,236h-96v-96h48.64c3.566,24.528,22.832,43.794,47.36,47.36V236z M288,171.2c-15.698-3.236-27.964-15.502-31.2-31.2H288
			V171.2z M304,171.2V132c0-4.418-3.582-8-8-8h-39.2c3.827-18.611,20.199-31.976,39.2-32c22.091-0.022,40.018,17.868,40.04,39.96
			C336.059,150.998,322.657,167.411,304,171.2z"/>
	</g>
</g>
<g>
	<g>
		<path d="M390.641,246.785c-2.723-3.479-7.751-4.092-11.231-1.369c-0.238,0.187-0.466,0.387-0.682,0.599v-0.032l-60.208,52.68
			l-51.368-22.016c-1.894-0.814-4.029-0.866-5.96-0.144l-64,24c-4.14,1.543-6.245,6.151-4.701,10.291
			c1.169,3.135,4.164,5.211,7.509,5.205c0.958-0.003,1.908-0.174,2.808-0.504l60.992-22.88l53.048,22.736
			c2.831,1.214,6.107,0.694,8.424-1.336l64-56C392.751,255.293,393.364,250.265,390.641,246.785z"/>
	</g>
</g>
<g>
	<g>
		<path d="M152,116H40c-4.418,0-8,3.582-8,8s3.582,8,8,8h112c4.418,0,8-3.582,8-8S156.418,116,152,116z"/>
	</g>
</g>
<g>
	<g>
		<path d="M438.944,200l-32-56c-2.531-3.835-7.692-4.892-11.527-2.361c-0.939,0.619-1.742,1.423-2.361,2.361l-32,56
			c-2.209,3.826-0.898,8.719,2.928,10.928c1.221,0.705,2.606,1.075,4.016,1.072h64c4.418,0.009,8.007-3.566,8.016-7.984
			C440.019,202.606,439.649,201.221,438.944,200z M381.784,196L400,164.128L418.216,196H381.784z"/>
	</g>
</g>
<g>
</g>
<g>
</g>
<g>
</g>
<g>
</g>
<g>
</g>
<g>
</g>
<g>
</g>
<g>
</g>
<g>
</g>
<g>
</g>
<g>
</g>
<g>
</g>
<g>
</g>
<g>
</g>
<g>
</g>
</svg>
