<?xml version="1.0"?>
<svg xmlns="http://www.w3.org/2000/svg" viewBox="0 0 64 64" width="512" height="512"><g id="Vdo_edit" data-name="Vdo edit"><path d="M60,8H4a3,3,0,0,0-3,3V47a3,3,0,0,0,3,3H60a3,3,0,0,0,3-3V11A3,3,0,0,0,60,8ZM39,42a1,1,0,0,0-.293-.707L30.414,33,39,24.414l12,12V42ZM13,42V38.414l10-10L36.586,42ZM3,16h8V42H3Zm48,0V33.586L39.707,22.293a1,1,0,0,0-1.414,0L29,31.586l-5.293-5.293a1,1,0,0,0-1.414,0L13,35.586V16Zm2,0h8V42H53Zm7-6a1,1,0,0,1,1,1v3H53V10Zm-9,0v4H43V10ZM41,10v4H33V10ZM31,10v4H23V10ZM21,10v4H13V10ZM3,11a1,1,0,0,1,1-1h7v4H3ZM4,48a1,1,0,0,1-1-1V44h8v4Zm9,0V44h8v4Zm10,0V44h8v4Zm10,0V44h8v4Zm10,0V44h8v4Zm18-1a1,1,0,0,1-1,1H53V44h8Z"/><path d="M52,54H40V52a1,1,0,0,0-1-1H36a1,1,0,0,0-1,1v2H12a1,1,0,0,0,0,2H35v2a1,1,0,0,0,1,1h3a1,1,0,0,0,1-1V56H52a1,1,0,0,0,0-2ZM38,57H37V53h1Z"/><path d="M15,19h7a1,1,0,0,0,0-2H15a1,1,0,0,0,0,2Z"/><path d="M25,19h1a1,1,0,0,0,0-2H25a1,1,0,0,0,0,2Z"/></g></svg>
