<svg xmlns="http://www.w3.org/2000/svg" width="86.772" height="86.774" viewBox="0 0 86.772 86.774">
  <g id="Page-1" transform="translate(0.002 0.003)">
    <g id="_010---Idea" data-name="010---Idea" transform="translate(-0.002 -0.003)">
      <path id="Shape" d="M3.13,55.074a10.322,10.322,0,0,0,1.5.868c.625.32,1.672.855,1.746,1.229a2.512,2.512,0,0,1-.171,1.465c-.215.463-.441.86-.636,1.2-.529.936-1.416,2.5-.08,3.6.312.289.852.707,1.343,1.085a3.643,3.643,0,0,0-.47,2.087,2.082,2.082,0,0,0,.858,1.422c.321.227.664.424,1,.616.855.487,1.189.714,1.3,1.167a3.984,3.984,0,0,1-.145,1.735c-.085.386-.168.774-.217,1.157a8.606,8.606,0,0,0,.476,3.9,5.417,5.417,0,0,0,5.115,3.941,5.814,5.814,0,0,0,1.186-.126,109.738,109.738,0,0,0,12.193-3.649c3.258,1.912,5.316,7.725,5.853,9.908a1.446,1.446,0,0,0,1.4,1.1l36.3-.1a1.446,1.446,0,0,0,1.377-1.88A11.158,11.158,0,0,0,71.6,83.042a13.5,13.5,0,0,1-.936-1.565,27.318,27.318,0,0,1-1.633-4.113,48.8,48.8,0,0,1-1.7-8.46,1.446,1.446,0,1,0-2.869.353,51.59,51.59,0,0,0,1.8,8.966,30.312,30.312,0,0,0,1.795,4.526,16.045,16.045,0,0,0,1.121,1.89l.1.145-32.8.094a23.037,23.037,0,0,0-5.09-9.235l1.3-.456c.969-.338,1.7-.593,2.074-.713,6.2-1.96,9.293-4.781,9.209-8.388a1.408,1.408,0,0,0-1.472-1.411,1.446,1.446,0,0,0-1.411,1.479c.035,1.488-1.184,3.659-7.2,5.56-.392.126-1.147.389-2.149.739-1.074.376-2.441.853-3.948,1.365h-.01a112.525,112.525,0,0,1-12.437,3.76,2.56,2.56,0,0,1-2.976-1.928,5.75,5.75,0,0,1-.34-2.58c.038-.3.107-.6.174-.907a6.336,6.336,0,0,0,.126-3.079A4.805,4.805,0,0,0,9.66,66.13l-.3-.172a5.421,5.421,0,0,1,.557-.894,1.446,1.446,0,0,0-.276-2.059c-.347-.255-1.166-.868-1.764-1.351.069-.126.145-.265.217-.39.227-.4.486-.86.739-1.4a5.422,5.422,0,0,0,.386-3.236c-.347-1.764-2.036-2.629-3.27-3.26a8.218,8.218,0,0,1-1.189-.69,6.141,6.141,0,0,1-.868-.706c0-.218.234-.748,1.336-2.091a58.172,58.172,0,0,0,6.619-10.751,4.272,4.272,0,0,0,.56-1.957,5.062,5.062,0,0,0-2.113-3.615c-.586-.537-1.137-1.043-1.2-1.51a2.627,2.627,0,0,1,.226-.994c.236-.62.508-1.228.781-1.837a21.127,21.127,0,0,0,1.414-3.814l.145-.616a36.158,36.158,0,0,1,1.183-4.269,24.8,24.8,0,0,1,5.189-8.476c2.766-2.927,7.121-5,12.963-6.159A94,94,0,0,1,44.562,3.934a30.844,30.844,0,0,1,6.807.386,1.446,1.446,0,0,0,.495-2.849,33.587,33.587,0,0,0-7.452-.425A96.523,96.523,0,0,0,30.423,3.054c-6.521,1.3-11.26,3.588-14.495,7.007a27.708,27.708,0,0,0-5.8,9.462A39.225,39.225,0,0,0,8.846,24.14l-.145.61a18.869,18.869,0,0,1-1.236,3.294c-.289.659-.59,1.319-.849,2a4.843,4.843,0,0,0-.383,2.419,5.521,5.521,0,0,0,2.108,3.229c.707.649,1.171,1.106,1.177,1.5a2.4,2.4,0,0,1-.247.629A55.792,55.792,0,0,1,2.937,48.12C1.892,49.394.8,50.879,1.03,52.364A4.415,4.415,0,0,0,3.13,55.074Z" transform="translate(-0.998 -0.997)"/>
      <path id="Shape-2" data-name="Shape" d="M13.047,24.1l.145-.644a32.226,32.226,0,0,1,.965-3.555,19.056,19.056,0,0,1,3.968-6.508,15.141,15.141,0,0,1,6.665-3.66,1.446,1.446,0,1,0-.842-2.766,17.909,17.909,0,0,0-7.926,4.441,21.953,21.953,0,0,0-4.574,7.5,34.469,34.469,0,0,0-1.072,3.918l-.145.626a1.446,1.446,0,0,0,1.08,1.735,1.418,1.418,0,0,0,.328.038A1.446,1.446,0,0,0,13.047,24.1Z" transform="translate(3.105 1.635)"/>
      <circle id="Oval" cx="1" cy="1" r="1" transform="translate(12 29)"/>
      <path id="Shape-3" data-name="Shape" d="M28,27.1a19.821,19.821,0,0,0,4.887,13.435,24.844,24.844,0,0,0,3.326,2.892c2.116,1.636,4.12,3.2,4.652,5.374a4.338,4.338,0,0,0-2.742,4.026v2.892A4.339,4.339,0,0,0,41.017,59.8v.266a5.785,5.785,0,1,0,11.569,0V59.8a4.339,4.339,0,0,0,2.892-4.072V52.831A4.338,4.338,0,0,0,52.73,48.8c.531-2.169,2.537-3.738,4.652-5.374a24.952,24.952,0,0,0,3.326-2.892A19.831,19.831,0,0,0,65.6,27.1,19.182,19.182,0,0,0,46.8,8,19.182,19.182,0,0,0,28,27.1Zm14.462,2.589H41.017a1.446,1.446,0,1,1,1.446-1.446Zm5.785,18.8H45.355V32.585h2.892ZM46.8,62.954a2.892,2.892,0,0,1-2.892-2.892h5.785A2.892,2.892,0,0,1,46.8,62.954Zm5.785-7.231a1.446,1.446,0,0,1-1.446,1.446H42.463a1.446,1.446,0,0,1-1.446-1.446V52.831a1.446,1.446,0,0,1,1.446-1.446H51.14a1.446,1.446,0,0,1,1.446,1.446ZM62.709,27.148A16.91,16.91,0,0,1,58.569,38.6a22.6,22.6,0,0,1-2.946,2.541,20.246,20.246,0,0,0-4.483,4.279V32.585h1.446a4.338,4.338,0,1,0-4.338-4.338v1.446H45.355V28.246a4.338,4.338,0,1,0-4.338,4.338h1.446V45.421a20.222,20.222,0,0,0-4.476-4.278A22.644,22.644,0,0,1,35.04,38.6a16.9,16.9,0,0,1-4.146-11.452c.145-8.813,7.422-16.256,15.908-16.256S62.571,18.336,62.709,27.148ZM51.14,29.692V28.246a1.446,1.446,0,1,1,1.446,1.446Z" transform="translate(11.048 2.128)"/>
      <path id="Shape-4" data-name="Shape" d="M57.446,22.892h4.338a1.446,1.446,0,0,0,0-2.892H57.446a1.446,1.446,0,1,0,0,2.892Z" transform="translate(23.541 7.482)"/>
      <path id="Shape-5" data-name="Shape" d="M52.76,12.532a1.446,1.446,0,0,0,1.024-.424l3.067-3.069a1.446,1.446,0,1,0-2.045-2.045l-3.069,3.067a1.446,1.446,0,0,0,1.022,2.47Z" transform="translate(21.45 1.482)"/>
      <path id="Shape-6" data-name="Shape" d="M41.446,8.231a1.446,1.446,0,0,0,1.446-1.446V2.446a1.446,1.446,0,1,0-2.892,0V6.785A1.446,1.446,0,0,0,41.446,8.231Z" transform="translate(16.403 -0.995)"/>
      <path id="Shape-7" data-name="Shape" d="M32.108,12.108a1.446,1.446,0,0,0,0-2.046L29.039,6.994a1.446,1.446,0,1,0-2.045,2.045l3.067,3.069a1.446,1.446,0,0,0,2.046,0Z" transform="translate(10.403 1.482)"/>
      <path id="Shape-8" data-name="Shape" d="M22.446,20a1.446,1.446,0,1,0,0,2.892h4.338a1.446,1.446,0,1,0,0-2.892Z" transform="translate(7.926 7.482)"/>
    </g>
  </g>
</svg>
