<svg xmlns="http://www.w3.org/2000/svg" width="86.777" height="86.77" viewBox="0 0 86.777 86.77">
  <g id="Global" transform="translate(-2 -1.999)">
    <path id="Path_2701" data-name="Path 2701" d="M50.053,38.105A14.053,14.053,0,1,0,36,24.053,14.053,14.053,0,0,0,50.053,38.105Zm0-24.983a10.93,10.93,0,1,1-10.93,10.93,10.93,10.93,0,0,1,10.93-10.93Z" transform="translate(12.18 4.492)"/>
    <path id="Path_2702" data-name="Path 2702" d="M88.776,26.587A24.546,24.546,0,0,0,47.951,8.175,38.872,38.872,0,0,0,42.5,7.786,40.483,40.483,0,0,0,4.329,61.8c.012.029.017.058.029.085a40.5,40.5,0,0,0,78.634-13.6,38.885,38.885,0,0,0-.323-4.952C86.157,37.181,88.776,31.07,88.776,26.587Zm-2.893,0c0,10.546-17.121,32.525-21.694,38.206C59.617,59.112,42.5,37.145,42.5,26.587a21.694,21.694,0,0,1,43.388,0ZM30.926,12.508v2.509a1.446,1.446,0,0,1-1.446,1.446A4.361,4.361,0,0,0,25.14,20.8v7.231a1.446,1.446,0,0,1-1.446,1.446H17.909a4.339,4.339,0,1,0,0,8.678H32.372A4.339,4.339,0,0,1,36.711,42.5v4.339a4.339,4.339,0,0,1-4.339,4.339H30.926a4.385,4.385,0,0,0-3.471,1.736l-2.893,3.851a4.329,4.329,0,0,0-.868,2.613V70.818l-2.386-2.386a2.93,2.93,0,0,1-.791-1.474l-.723-3.616a4.355,4.355,0,0,0-4.256-3.491H6.722a37.579,37.579,0,0,1,24.2-47.344ZM7.785,62.744h7.752a1.446,1.446,0,0,1,1.416,1.166l.723,3.624a5.8,5.8,0,0,0,1.579,2.943l2.389,2.391a2.893,2.893,0,0,0,4.942-2.039V59.374a1.406,1.406,0,0,1,.289-.868l2.893-3.854a1.471,1.471,0,0,1,1.157-.586h1.446A7.24,7.24,0,0,0,39.6,46.835V42.5a7.24,7.24,0,0,0-7.231-7.231H17.909a1.409,1.409,0,0,1-1.03-.443,1.384,1.384,0,0,1-.417-1,1.446,1.446,0,0,1,1.446-1.446h5.785a4.339,4.339,0,0,0,4.339-4.339V20.8a1.409,1.409,0,0,1,.443-1.03,1.384,1.384,0,0,1,1-.417,4.339,4.339,0,0,0,4.339-4.339V11.7A37.492,37.492,0,0,1,42.5,10.678c.988,0,1.945.036,2.893.107a24.461,24.461,0,0,0-5.785,15.8c0,8.533,9.462,22.919,16.38,32.305a4.31,4.31,0,0,0-2.3,3.137l-.638,3.847a1.446,1.446,0,0,1-1.422,1.206H45.909a2.9,2.9,0,0,0-1.853.668l-6.5,5.43a4.288,4.288,0,0,0-1.115,5.279l1.714,3.426v3.74A37.7,37.7,0,0,1,7.785,62.744ZM42.5,85.884c-.485,0-.966-.019-1.446-.036v-4.3A1.446,1.446,0,0,0,40.9,80.9l-1.873-3.737A1.42,1.42,0,0,1,39.4,75.41l6.51-5.435h5.713A4.323,4.323,0,0,0,55.9,66.351l.636-3.847A1.446,1.446,0,0,1,57.8,61.327c2.865,3.781,5,6.348,5.276,6.683a1.446,1.446,0,0,0,2.221,0c.281-.337,2.421-2.916,5.3-6.712h3.484a1.458,1.458,0,0,1,1.235.69L76.6,64.1A37.647,37.647,0,0,1,42.5,85.884Zm37.6-37.6A37.439,37.439,0,0,1,77.96,60.767l-.171-.281a4.368,4.368,0,0,0-3.707-2.081H72.755c2.331-3.182,4.917-6.893,7.324-10.743C80.081,47.87,80.1,48.071,80.1,48.281Z" transform="translate(0 0)"/>
  </g>
</svg>
