<svg xmlns="http://www.w3.org/2000/svg" width="85" height="85" viewBox="0 0 85 85">
  <g id="Group_491" data-name="Group 491" transform="translate(-1051 -1962.466)">
    <g id="planning" transform="translate(1051 1962.466)">
      <g id="Group_462" data-name="Group 462">
        <g id="Group_461" data-name="Group 461">
          <path id="Path_2703" data-name="Path 2703" d="M63.75,5.667H51V1.417A1.417,1.417,0,0,0,49.583,0h-34a1.417,1.417,0,0,0-1.417,1.417v4.25H1.417A1.417,1.417,0,0,0,0,7.083v76.5A1.417,1.417,0,0,0,1.417,85H63.75a1.417,1.417,0,0,0,1.417-1.417V7.083A1.417,1.417,0,0,0,63.75,5.667ZM17,2.833H48.167V5.667H17ZM17,8.5H48.167v5.667H36.591a4.25,4.25,0,0,0-8.015,0H17ZM62.333,82.167H2.833V8.5H14.167v7.083A1.417,1.417,0,0,0,15.583,17H29.75a1.417,1.417,0,0,0,1.417-1.417,1.417,1.417,0,1,1,2.833,0A1.417,1.417,0,0,0,35.417,17H49.583A1.417,1.417,0,0,0,51,15.583V8.5H62.333Z"/>
        </g>
      </g>
      <g id="Group_464" data-name="Group 464" transform="translate(8.5 19.833)">
        <g id="Group_463" data-name="Group 463">
          <path id="Path_2704" data-name="Path 2704" d="M53.667,112a5.667,5.667,0,1,0,5.667,5.667A5.667,5.667,0,0,0,53.667,112Zm0,8.5a2.833,2.833,0,1,1,2.833-2.833A2.833,2.833,0,0,1,53.667,120.5Z" transform="translate(-48 -112)"/>
        </g>
      </g>
      <g id="Group_466" data-name="Group 466" transform="translate(8.5 34)">
        <g id="Group_465" data-name="Group 465">
          <path id="Path_2705" data-name="Path 2705" d="M53.667,192a5.667,5.667,0,1,0,5.667,5.667A5.667,5.667,0,0,0,53.667,192Zm0,8.5a2.833,2.833,0,1,1,2.833-2.833A2.833,2.833,0,0,1,53.667,200.5Z" transform="translate(-48 -192)"/>
        </g>
      </g>
      <g id="Group_468" data-name="Group 468" transform="translate(34 21.25)">
        <g id="Group_467" data-name="Group 467">
          <path id="Path_2706" data-name="Path 2706" d="M213.25,120H193.417a1.417,1.417,0,0,0,0,2.833H213.25a1.417,1.417,0,1,0,0-2.833Z" transform="translate(-192 -120)"/>
        </g>
      </g>
      <g id="Group_470" data-name="Group 470" transform="translate(22.667 21.25)">
        <g id="Group_469" data-name="Group 469">
          <path id="Path_2707" data-name="Path 2707" d="M135.083,120h-5.667a1.417,1.417,0,0,0,0,2.833h5.667a1.417,1.417,0,0,0,0-2.833Z" transform="translate(-128 -120)"/>
        </g>
      </g>
      <g id="Group_472" data-name="Group 472" transform="translate(42.5 26.917)">
        <g id="Group_471" data-name="Group 471">
          <path id="Path_2708" data-name="Path 2708" d="M252.75,152H241.417a1.417,1.417,0,0,0,0,2.833H252.75a1.417,1.417,0,1,0,0-2.833Z" transform="translate(-240 -152)"/>
        </g>
      </g>
      <g id="Group_474" data-name="Group 474" transform="translate(22.667 26.917)">
        <g id="Group_473" data-name="Group 473">
          <path id="Path_2709" data-name="Path 2709" d="M143.583,152H129.417a1.417,1.417,0,0,0,0,2.833h14.167a1.417,1.417,0,1,0,0-2.833Z" transform="translate(-128 -152)"/>
        </g>
      </g>
      <g id="Group_476" data-name="Group 476" transform="translate(48.167 35.417)">
        <g id="Group_475" data-name="Group 475">
          <path id="Path_2710" data-name="Path 2710" d="M279.083,200h-5.667a1.417,1.417,0,1,0,0,2.833h5.667a1.417,1.417,0,1,0,0-2.833Z" transform="translate(-272 -200)"/>
        </g>
      </g>
      <g id="Group_478" data-name="Group 478" transform="translate(22.667 35.417)">
        <g id="Group_477" data-name="Group 477">
          <path id="Path_2711" data-name="Path 2711" d="M149.25,200H129.417a1.417,1.417,0,0,0,0,2.833H149.25a1.417,1.417,0,0,0,0-2.833Z" transform="translate(-128 -200)"/>
        </g>
      </g>
      <g id="Group_480" data-name="Group 480" transform="translate(38.25 41.083)">
        <g id="Group_479" data-name="Group 479">
          <path id="Path_2712" data-name="Path 2712" d="M233,232H217.417a1.417,1.417,0,0,0,0,2.833H233A1.417,1.417,0,0,0,233,232Z" transform="translate(-216 -232)"/>
        </g>
      </g>
      <g id="Group_482" data-name="Group 482" transform="translate(22.667 41.083)">
        <g id="Group_481" data-name="Group 481">
          <path id="Path_2713" data-name="Path 2713" d="M139.333,232h-9.917a1.417,1.417,0,0,0,0,2.833h9.917a1.417,1.417,0,0,0,0-2.833Z" transform="translate(-128 -232)"/>
        </g>
      </g>
      <g id="Group_484" data-name="Group 484" transform="translate(68)">
        <g id="Group_483" data-name="Group 483">
          <path id="Path_2714" data-name="Path 2714" d="M395.333,5.808V5.667a5.667,5.667,0,1,0-11.333,0v68c0,.018.01.034.01.051a1.41,1.41,0,0,0,.088.436c.013.031.02.064.033.093s.01.035.018.052l4.1,8.2v1.082a1.417,1.417,0,1,0,2.833,0V82.5l4.108-8.2c.008-.017.01-.035.018-.052s.02-.062.033-.093a1.411,1.411,0,0,0,.088-.436c0-.018.01-.033.01-.051V8.761a4.25,4.25,0,0,1,2.826,3.989V25.5a1.417,1.417,0,1,0,2.833,0V12.75A7.1,7.1,0,0,0,395.333,5.808ZM389.667,79l-1.958-3.916h3.916ZM392.5,72.25h-5.667V32.583H392.5Zm0-42.5h-5.667V8.5H392.5ZM386.833,5.667a2.833,2.833,0,1,1,5.667,0Z" transform="translate(-384)"/>
        </g>
      </g>
      <g id="Group_486" data-name="Group 486" transform="translate(8.48 48.16)">
        <g id="Group_485" data-name="Group 485">
          <path id="Path_2715" data-name="Path 2715" d="M81.908,279.052v-2.833h-4.25a1.416,1.416,0,0,0-1,.415l-1.088,1.088A15.583,15.583,0,1,0,73.3,299.643q.2-.163.4-.332a15.556,15.556,0,0,0,1.853-1.941l1.1,1.1a1.416,1.416,0,0,0,1.01.412h4.25v-2.833H78.244l-1.081-1.081a15.457,15.457,0,0,0,.018-14.857l1.062-1.062h3.663Zm-6.838,13.825L72.992,290.8l-2,2,2.56,2.559c-.241.309-.492.611-.761.9l-7.294-7.292H76.162A12.706,12.706,0,0,1,75.069,292.878Zm-13-6.742a1.417,1.417,0,0,0-1,2.418l9.551,9.553a12.75,12.75,0,1,1,2.925-18.371L70.984,282.3l2,2,2.071-2.07a12.61,12.61,0,0,1,1.1,3.9Z" transform="translate(-47.888 -271.962)"/>
        </g>
      </g>
      <g id="Group_488" data-name="Group 488" transform="translate(45.333 48.167)">
        <g id="Group_487" data-name="Group 487">
          <path id="Path_2716" data-name="Path 2716" d="M261.667,272a5.667,5.667,0,1,0,5.667,5.667A5.667,5.667,0,0,0,261.667,272Zm0,8.5a2.833,2.833,0,1,1,2.833-2.833A2.833,2.833,0,0,1,261.667,280.5Z" transform="translate(-256 -272)"/>
        </g>
      </g>
      <g id="Group_490" data-name="Group 490" transform="translate(45.333 68)">
        <g id="Group_489" data-name="Group 489">
          <path id="Path_2717" data-name="Path 2717" d="M261.667,384a5.667,5.667,0,1,0,5.667,5.667A5.667,5.667,0,0,0,261.667,384Zm0,8.5a2.833,2.833,0,1,1,2.833-2.833A2.833,2.833,0,0,1,261.667,392.5Z" transform="translate(-256 -384)"/>
        </g>
      </g>
    </g>
  </g>
</svg>
